<?xml version="1.0" encoding="UTF-8"?>
<svg width="100pt" height="100pt" version="1.1" viewBox="0 0 100 100" xmlns="http://www.w3.org/2000/svg">
 <path fill="#8e51ff" d="m85.453 24.914h10.707c2.1133 0 3.8398 1.7227 3.8398 3.8398v34.781c0 1.6484-1.0547 3.0273-2.5234 3.5703v4.8398c0 2.1133-1.7266 3.8438-3.8398 3.8438h-0.22656c0-7.6562-6.2227-13.879-13.871-13.879h-1.0703c-7.6523 0-13.875 6.2266-13.875 13.879h-25.391c0-7.6562-6.2227-13.879-13.875-13.879-7.6484 0-13.871 6.2266-13.871 13.879h-7.6133c-2.1094 0-3.8438-1.7305-3.8438-3.8438v-13.938c0-2.1133 1.5938-4.5156 3.543-5.3398l4.8281-2.0312c1.9531-0.81641 4.457-2.9609 5.5781-4.7539l7.1992-17.711c1.1172-1.7891 3.7656-3.2578 5.875-3.2578h27.676c-1.7305-4.2578-0.19531-9.0547 4.0156-11.543l1.7578-1.0391 1 1.7773 6.1016 10.805h2.4023c0.11328-0.73828 0.35938-1.4609 0.73828-2.1406l4.3281-7.6602c0.011719-0.023437 0.011719-0.023437 0.023437-0.046875 0.86328-1.4727 2.7578-1.9648 4.2305-1.1016 0.66406 0.38672 1.1328 0.98438 1.3672 1.6562 0.69141-0.11328 1.4258 0 2.0781 0.38281 0.58984 0.34766 1.0273 0.85938 1.2812 1.4453 0.63281-0.066407 1.2891 0.0625 1.8828 0.41016 1.4727 0.86328 1.9805 2.7461 1.1406 4.2344zm-67.125 22.605c-0.5625 0.89453-0.15625 1.6289 0.89062 1.625h13.629c1.0547 0 1.9219-0.86719 1.9219-1.9219v-16.172c0-1.0547-0.86719-1.9219-1.9219-1.9219h-4.0156c-1.0547 0-2.3789 0.73828-2.9414 1.6328zm6.7422 17.684c6.0625 0 10.992 4.9219 10.992 10.992 0 6.0664-4.9297 10.988-10.992 10.988-6.0742 0-10.992-4.9219-10.992-10.988 0-6.0703 4.918-10.992 10.992-10.992zm54.207 0c6.0703 0 10.988 4.9219 10.992 10.992 0 6.0664-4.9219 10.988-10.992 10.988-6.0703 0-10.992-4.9219-10.992-10.988 0-6.0703 4.9219-10.992 10.992-10.992zm-0.20312 15.395c2.5391 0 4.6055-2.0625 4.6055-4.6016 0-2.5391-2.0664-4.6055-4.6055-4.6055-2.5391 0-4.6016 2.0664-4.6016 4.6055 0 2.5391 2.0586 4.6016 4.6016 4.6016zm-54.203 0c2.543 0 4.6016-2.0625 4.6016-4.6016 0-2.5391-2.0586-4.6055-4.6016-4.6055-2.5469 0-4.6055 2.0664-4.6055 4.6055 0 2.5391 2.0586 4.6016 4.6055 4.6016zm47.57-42.996 3.4961-6.8516c1.8594 0.59375 4.0156-0.16406 5.043-1.9766l4.3242-7.6641c0.30078-0.53516 0.12109-1.2148-0.41016-1.5273-0.51953-0.30469-1.1914-0.12891-1.4961 0.39062 0 0.003906-0.003907 0.011719-0.007813 0.015625l-3.7344 6.5898c-0.19531 0.34375-0.62891 0.46484-0.97266 0.26953-0.003906 0-0.007813-0.003906-0.007813-0.003906-0.34766-0.20312-0.46875-0.64844-0.26953-0.99609l3.7344-6.5898c0.30078-0.53516 0.11719-1.2148-0.41016-1.5273-0.52344-0.30469-1.1914-0.13281-1.4961 0.38672-0.003906 0.007812-0.003906 0.011718-0.007813 0.015624l-3.6523 6.4453c-0.23828 0.41797-0.76562 0.56641-1.1836 0.32812-0.007813 0-0.011719-0.003906-0.019531-0.007812-0.42578-0.25781-0.57031-0.80469-0.32812-1.2383l3.6562-6.4414c0.30078-0.53906 0.11719-1.2188-0.41406-1.5273-0.51953-0.30469-1.1875-0.13281-1.4922 0.38672-0.003907 0.007813-0.007813 0.011719-0.007813 0.015625l-4.3281 7.6641c-1.0234 1.8125-0.57812 4.0938 0.85547 5.4414l-2.9414 4.7344-0.78516-1.3867-0.21094-0.37109-9.6406-17.082c-3.7539 2.2148-4.6953 6.5234-2.7344 9.9961l6.5586 11.617 1.8477-0.39062 1.6562 2.9375-7.3281 11.793c-0.039063 0.0625-0.078125 0.13281-0.11328 0.19922-0.50391 1.0234 0.19141 2.4375 1.3867 3.0742 1.1992 0.63672 2.7109 0.39844 3.2148-0.625l5.2227-10.227 5.3867 9.5469c0.68359 1.2109 2.2969 1.5625 3.6016 0.79297 1.3086-0.77344 1.8125-2.3789 1.1328-3.5859z" fill-rule="evenodd"/>
</svg>
